<?xml version="1.0" encoding="UTF-8" standalone="no"?>
<!DOCTYPE svg PUBLIC "-//W3C//DTD SVG 1.1//EN" "http://www.w3.org/Graphics/SVG/1.1/DTD/svg11.dtd">
<svg width="100%" height="100%" viewBox="0 0 1800 1800" version="1.1" xmlns="http://www.w3.org/2000/svg" xmlns:xlink="http://www.w3.org/1999/xlink" xml:space="preserve" xmlns:serif="http://www.serif.com/" style="fill-rule:evenodd;clip-rule:evenodd;stroke-linejoin:round;stroke-miterlimit:2;">
    <g transform="matrix(4.70055,0,0,4.0977,-427.359,-13259.1)">
        <path d="M323.429,3381.18C335.067,3378.51 336.651,3393.45 326.931,3398.06C318.593,3403.4 305.377,3431.25 287.283,3481.61C285.221,3487.35 287.178,3481.48 283.156,3493.37C271.733,3527.14 262.811,3558.53 256.391,3587.55C251.221,3610.97 248.049,3627.29 248.049,3637.29C248.049,3637.91 248.074,3645.36 248.995,3648.07C249.557,3649.72 241.333,3647.36 238.308,3645.63C230.539,3641.2 231.127,3636.11 231.877,3631.7C238.881,3594.67 251.18,3548.65 268.773,3493.62C269.944,3489.95 272.548,3481.43 273.651,3478.23C287.075,3439.38 297.622,3412.86 305.293,3398.69C311.63,3387.02 317.821,3382.47 323.429,3381.18Z" style="fill:rgb(133,42,92);fill-rule:nonzero;"/>
    </g>
    <g transform="matrix(10.428,0,0,10.428,-395.379,20.7656)">
        <g transform="matrix(0.859842,0,0,0.859842,16.9983,17.9386)">
            <circle cx="160.229" cy="39.603" r="8.834" style="fill:rgb(133,42,92);"/>
        </g>
        <g transform="matrix(0.859842,0,0,0.859842,-16.2962,-18.0821)">
            <circle cx="160.229" cy="39.603" r="8.834" style="fill:rgb(133,42,92);"/>
        </g>
    </g>
    <g transform="matrix(6.24261,-4.42539,4.42539,6.24261,-851.025,1287.4)">
        <path d="M264.713,127.989C265.938,127.989 267.123,127.803 268.269,127.43C269.414,127.057 270.426,126.698 271.305,126.351C272.184,126.005 272.877,125.805 273.383,125.752C273.889,125.699 274.142,125.992 274.142,126.631C274.142,127.43 273.875,128.389 273.343,129.508C272.81,130.626 272.011,131.718 270.945,132.784C269.88,133.849 268.575,134.755 267.03,135.501C265.485,136.247 263.701,136.619 261.676,136.619C257.255,136.619 252.9,135.967 248.611,134.662C244.323,133.357 240.114,131.599 235.986,129.388C231.857,127.177 227.809,124.607 223.84,121.677C219.871,118.747 215.996,115.657 212.213,112.407C208.431,109.158 204.715,105.842 201.066,102.459C197.417,99.076 193.888,95.84 190.478,92.75C185.471,96.959 180.224,100.341 174.737,102.898C169.25,105.455 163.47,106.734 157.397,106.734C153.987,106.734 150.937,106.294 148.247,105.415C145.557,104.537 143.293,103.338 141.455,101.82C139.617,100.301 138.206,98.49 137.22,96.386C136.234,94.282 135.742,91.978 135.742,89.474C135.742,86.704 136.421,84.147 137.779,81.803C139.138,79.459 140.896,77.461 143.053,75.81C145.211,74.158 147.608,72.866 150.245,71.934C152.882,71.002 155.479,70.536 158.036,70.536C161.072,70.536 164.016,70.842 166.866,71.455C169.716,72.067 172.486,72.933 175.176,74.052C177.866,75.17 180.49,76.502 183.047,78.047C185.604,79.592 188.108,81.27 190.558,83.081C192.263,81.057 193.968,78.939 195.672,76.729C197.377,74.518 199.082,72.24 200.787,69.897C202.964,66.902 203.665,65.815 204.302,64.942C207.339,60.787 210.362,56.592 213.372,52.357C216.382,48.122 219.445,44.046 222.561,40.131C225.678,36.215 228.847,32.553 232.07,29.144C235.293,25.734 238.241,21.978 241.571,19.448C244.9,16.917 248.797,13.309 252.593,13.768C252.858,13.8 253.213,13.885 253.576,14.043C255.167,14.738 256.928,16.86 252.019,22.276C238.013,37.732 212.674,69.198 210.329,72.212C208.092,75.089 205.927,77.368 203.583,80.005C201.239,82.642 198.815,85.159 196.312,87.556C199.721,90.38 203.104,93.336 206.46,96.426C209.816,99.516 213.226,102.565 216.688,105.575C220.151,108.585 223.68,111.435 227.276,114.125C230.872,116.816 234.641,119.186 238.583,121.237C242.525,123.288 246.654,124.926 250.969,126.152C255.284,127.377 259.865,127.989 264.713,127.989ZM241.664,21.598C241.664,20.746 242.765,28.664 240.101,32.02C237.438,35.376 234.707,38.986 231.911,42.848C229.114,46.71 226.224,50.732 223.241,54.914C220.257,59.096 217.168,63.238 213.971,67.339C213.971,67.339 241.664,24.048 241.664,21.598ZM158.356,104.257C163.203,104.257 167.878,102.818 172.379,99.942C176.881,97.065 181.342,93.256 185.764,88.515C183.26,86.331 180.796,84.32 178.372,82.482C175.949,80.644 173.605,79.046 171.341,77.688C169.077,76.329 166.852,75.277 164.668,74.531C162.484,73.785 160.38,73.412 158.356,73.412C156.438,73.412 154.507,73.705 152.562,74.291C150.618,74.877 148.873,75.81 147.328,77.088C145.783,78.367 144.532,80.031 143.573,82.082C142.614,84.133 142.134,86.624 142.134,89.554C142.134,91.578 142.467,93.483 143.133,95.267C143.799,97.052 144.798,98.61 146.13,99.942C147.461,101.274 149.153,102.326 151.204,103.098C153.255,103.871 155.639,104.257 158.356,104.257Z" style="fill:rgb(133,42,92);fill-rule:nonzero;"/>
    </g>
</svg>
